<?xml version="1.0" standalone="no"?>
<!DOCTYPE svg PUBLIC "-//W3C//DTD SVG 20010904//EN"
 "http://www.w3.org/TR/2001/REC-SVG-20010904/DTD/svg10.dtd">
<svg version="1.0" xmlns="http://www.w3.org/2000/svg"
 width="100.000000pt" height="100.000000pt" viewBox="0 0 100.000000 100.000000"
 preserveAspectRatio="xMidYMid meet">

<g transform="translate(0.000000,100.000000) scale(0.100000,-0.100000)"
fill="#000000" stroke="none">
<path d="M393 945 c-256 -69 -394 -334 -303 -578 11 -30 32 -70 45 -89 51 -69
51 -69 5 -147 -30 -51 -40 -75 -32 -83 16 -16 26 -5 76 80 48 82 86 179 86
218 0 18 5 23 21 21 12 -1 24 3 26 10 6 16 -55 82 -83 89 -36 9 -14 30 47 44
41 10 54 19 75 51 27 43 55 64 99 75 17 4 47 22 68 41 21 18 58 44 83 56 l46
22 24 -28 c28 -33 30 -50 8 -68 -25 -21 -72 -93 -80 -123 -7 -31 9 -56 38 -56
10 0 41 21 68 46 28 26 50 41 50 34 0 -8 -31 -54 -70 -104 -38 -50 -78 -111
-89 -136 -23 -53 -65 -255 -56 -270 11 -17 25 -11 35 14 6 17 24 29 59 41 153
51 265 183 293 345 53 307 -240 575 -539 495z m271 -63 c91 -42 149 -100 194
-190 35 -72 37 -81 37 -171 0 -87 -3 -102 -32 -163 -43 -90 -100 -150 -186
-193 -38 -19 -72 -33 -75 -31 -9 10 22 143 44 186 13 25 50 79 83 120 70 87
85 131 53 162 l-20 21 -58 -51 c-32 -29 -60 -50 -62 -48 -9 10 32 64 45 59 7
-3 13 2 13 12 0 9 4 14 8 11 4 -2 14 16 22 41 11 40 11 50 -3 77 -8 17 -18 44
-21 59 -9 39 -30 43 -74 15 -20 -14 -64 -42 -96 -64 -78 -52 -74 -50 -127 -73
-29 -14 -57 -37 -78 -66 -18 -25 -40 -45 -49 -45 -30 0 -120 -48 -132 -70 -14
-27 -9 -32 43 -45 41 -10 42 -11 40 -51 -2 -60 -22 -126 -36 -121 -7 2 -30 38
-52 81 -38 76 -40 82 -40 175 0 87 3 102 32 163 40 85 97 147 172 186 78 42
122 52 213 48 61 -3 92 -11 142 -34z"/>
<path d="M432 568 c-5 -18 -8 -34 -6 -36 1 -2 14 4 29 14 28 18 30 47 3 52
-12 2 -20 -7 -26 -30z"/>
</g>
</svg>
